<svg width="522" height="115" viewBox="0 0 522 115" fill="none" xmlns="http://www.w3.org/2000/svg">
<path d="M77.6097 36.0198C72.3242 34.1563 68.311 32.9793 65.5704 32.4888C62.8297 31.9003 59.7954 31.6061 56.4675 31.6061C50.4967 31.6061 45.5048 34.4015 41.4917 39.9922C37.4786 45.4848 35.472 52.792 35.472 61.9138C35.472 71.3297 37.5765 78.6369 41.7853 83.8353C45.9942 89.0337 51.2308 91.6329 57.4952 91.6329C61.1168 91.6329 64.5426 91.1425 67.7727 90.1617C71.0028 89.0828 73.8902 87.7586 76.4351 86.1893L86.5658 106.198C82.6506 108.552 77.9523 110.367 72.471 111.642C67.0875 112.917 61.8509 113.554 56.7611 113.554C40.5129 113.554 28.2778 108.748 20.0558 99.1363C11.9317 89.5241 7.86963 77.1657 7.86963 62.0609C7.86963 46.6618 12.2253 34.1072 20.9367 24.397C29.6481 14.5887 41.3938 9.68453 56.1738 9.68453C61.1657 9.68453 66.3045 10.4202 71.59 11.8914C76.9735 13.2646 81.6228 15.2753 85.538 17.9235L77.6097 36.0198Z" fill="white"/>
<path d="M113.059 30.5762C109.144 30.5762 105.767 29.154 102.928 26.3096C100.09 23.4652 98.6705 20.0813 98.6705 16.158C98.6705 12.1366 100.09 8.7037 102.928 5.85929C105.767 2.9168 109.144 1.44556 113.059 1.44556C117.072 1.44556 120.498 2.9168 123.336 5.85929C126.273 8.7037 127.741 12.1366 127.741 16.158C127.741 20.0813 126.273 23.4652 123.336 26.3096C120.498 29.154 117.072 30.5762 113.059 30.5762ZM99.8451 111.642V40.2864H126.567V111.642H99.8451Z" fill="white"/>
<path d="M195.537 63.385C192.698 61.9138 190.251 60.9329 188.196 60.4425C186.14 59.854 183.84 59.5598 181.295 59.5598C177.674 59.5598 174.444 61.031 171.605 63.9735C168.767 66.916 167.347 70.9374 167.347 76.0377C167.347 81.04 168.767 84.8652 171.605 87.5135C174.444 90.1617 177.674 91.4858 181.295 91.4858C183.644 91.4858 185.896 91.2406 188.049 90.7502C190.202 90.1617 192.698 89.1318 195.537 87.6606L203.025 106.051C198.914 109.288 194.558 111.299 189.958 112.083C185.357 112.868 181.589 113.26 178.653 113.26C167.103 113.26 157.706 110.073 150.463 103.697C143.318 97.2237 139.745 88.0039 139.745 76.0377C139.745 64.0716 143.318 54.7047 150.463 47.9369C157.706 41.1692 167.103 37.7853 178.653 37.7853C181.589 37.7853 185.357 38.1777 189.958 38.9623C194.558 39.747 198.914 41.7577 203.025 44.9944L195.537 63.385Z" fill="white"/>
<path d="M228.91 30.5762C224.995 30.5762 221.618 29.154 218.779 26.3096C215.941 23.4652 214.522 20.0813 214.522 16.158C214.522 12.1366 215.941 8.7037 218.779 5.85929C221.618 2.9168 224.995 1.44556 228.91 1.44556C232.923 1.44556 236.349 2.9168 239.188 5.85929C242.124 8.7037 243.592 12.1366 243.592 16.158C243.592 20.0813 242.124 23.4652 239.188 26.3096C236.349 29.154 232.923 30.5762 228.91 30.5762ZM215.696 111.642V40.2864H242.418V111.642H215.696Z" fill="white"/>
<path d="M278.941 46.6128C281.975 44.8473 285.988 42.9347 290.98 40.8749C295.972 38.8152 301.453 37.7853 307.424 37.7853C317.506 37.7853 324.7 40.6297 329.007 46.3186C333.313 51.9093 335.467 58.9713 335.467 67.5045V111.642H308.745V68.093C308.745 65.3467 307.913 63.2379 306.249 61.7666C304.585 60.2954 302.53 59.5598 300.083 59.5598C298.419 59.5598 296.314 60.0011 293.77 60.8839C291.225 61.7666 288.876 62.6984 286.722 63.6793V111.642H260.001V40.4336H273.361L278.941 46.6128Z" fill="white"/>
<path d="M351.621 111.642V9.39028L378.342 7.77191V42.4933C381.278 41.2182 384.606 40.1393 388.326 39.2566C392.045 38.2757 395.618 37.7853 399.044 37.7853C409.126 37.7853 416.32 40.6297 420.627 46.3186C424.933 51.9093 427.087 58.9713 427.087 67.5045V111.642H400.365V68.093C400.365 65.3467 399.533 63.2379 397.869 61.7666C396.205 60.2954 394.15 59.5598 391.703 59.5598C390.039 59.5598 387.934 60.0011 385.389 60.8839C382.845 61.7666 380.495 62.6984 378.342 63.6793V111.642H351.621Z" fill="white"/>
<path d="M438.836 75.5964C438.836 63.6302 442.751 54.3614 450.581 47.7898C458.51 41.1202 468.053 37.7853 479.212 37.7853C490.957 37.7853 500.599 41.0221 508.135 47.4956C515.77 53.969 519.587 63.5812 519.587 76.332C519.587 88.2981 515.623 97.4689 507.695 103.844C499.767 110.122 490.076 113.26 478.624 113.26C467.172 113.26 457.678 110.171 450.141 103.991C442.604 97.8122 438.836 88.3472 438.836 75.5964ZM466.438 75.5964C466.438 80.4024 467.515 84.2767 469.668 87.2192C471.822 90.0636 474.905 91.4858 478.918 91.4858C483.127 91.4858 486.357 90.2107 488.608 87.6606C490.859 85.1104 491.985 81.3342 491.985 76.332C491.985 71.5259 490.908 67.5535 488.755 64.4149C486.602 61.1781 483.518 59.5598 479.505 59.5598C475.296 59.5598 472.066 60.982 469.815 63.8264C467.564 66.6708 466.438 70.5941 466.438 75.5964Z" fill="white"/>
<path fill-rule="evenodd" clip-rule="evenodd" d="M78.3624 37.7874L77.1189 37.3489C71.8481 35.4898 67.9235 34.3444 65.3004 33.8749L65.2763 33.8705L65.2524 33.8654C62.6256 33.3012 59.6928 33.0139 56.4467 33.0139C51.0074 33.0139 46.4164 35.525 42.6228 40.8119L42.6193 40.8167L42.6158 40.8216C38.8315 46.0028 36.8687 52.9895 36.8687 61.9158C36.8687 71.1413 38.931 78.0917 42.8665 82.9542C46.8273 87.8479 51.6702 90.2289 57.4745 90.2289C60.9598 90.2289 64.24 89.7579 67.3218 88.8239C70.4551 87.7755 73.2354 86.4967 75.6711 84.9941L76.9855 84.1833L88.4107 106.757L87.2797 107.437C83.2123 109.884 78.3697 111.747 72.7769 113.049C67.2956 114.347 61.9493 115 56.7404 115C40.2022 115 27.5177 110.095 18.9524 100.078L18.947 100.072C10.5642 90.15 6.42432 77.44 6.42432 62.063C6.42432 46.3751 10.8678 33.4569 19.8533 23.4363C28.8704 13.2817 41.0242 8.24277 56.153 8.24277C61.2815 8.24277 66.544 8.99822 71.9368 10.4985C77.4459 11.9058 82.2468 13.9762 86.3157 16.7294L87.2949 17.3919L78.3624 37.7874ZM71.5708 11.8704C76.9548 13.2442 81.6046 15.2558 85.5202 17.9053L77.5911 36.0099C72.305 34.1455 68.2915 32.968 65.5505 32.4773C62.8096 31.8885 59.775 31.5942 56.4467 31.5942C50.4753 31.5942 45.4829 34.3908 41.4694 39.9841C37.4559 45.4793 35.4491 52.7898 35.4491 61.9158C35.4491 71.3361 37.5538 78.6466 41.7631 83.8474C45.9724 89.0482 51.2095 91.6486 57.4745 91.6486C61.0965 91.6486 64.5227 91.158 67.7531 90.1767C70.4757 89.2669 72.9549 88.1829 75.1908 86.9247C75.6078 86.69 76.0163 86.4493 76.4164 86.2025L86.5481 106.221C82.6325 108.576 77.9337 110.391 72.4518 111.667C67.0678 112.942 61.8307 113.58 56.7404 113.58C40.4905 113.58 28.2541 108.772 20.0313 99.1554C11.9064 89.5388 7.84393 77.1747 7.84393 62.063C7.84393 46.6568 12.2001 34.0964 20.9123 24.3817C29.6246 14.5689 41.3715 9.66252 56.153 9.66252C61.1454 9.66252 66.2847 10.3985 71.5708 11.8704ZM98.4091 113.086V38.8587H127.972V113.086H98.4091ZM196.258 65.3644L194.877 64.6481C192.094 63.2052 189.761 62.2787 187.859 61.8248L187.828 61.8175L187.798 61.8087C185.89 61.2625 183.724 60.9804 181.287 60.9804C178.102 60.9804 175.227 62.2564 172.618 64.962C170.094 67.5796 168.757 71.2155 168.757 76.0462C168.757 80.7773 170.091 84.1805 172.565 86.4892C175.161 88.9127 178.052 90.0816 181.287 90.0816C183.526 90.0816 185.662 89.8491 187.697 89.3879C189.716 88.8327 192.106 87.8508 194.877 86.414L196.258 85.6976L204.737 106.528L203.897 107.189C199.623 110.556 195.051 112.678 190.189 113.508C185.55 114.299 181.693 114.706 178.644 114.706C166.819 114.706 157.066 111.434 149.514 104.784L149.506 104.777L149.498 104.77C141.986 97.9621 138.313 88.3146 138.313 76.0462C138.313 63.7753 141.987 53.9973 149.475 46.9018L149.482 46.8952C157.032 39.8384 166.797 36.3565 178.644 36.3565C181.693 36.3565 185.55 36.7626 190.189 37.5542C195.051 38.3838 199.623 40.5065 203.897 43.8733L204.737 44.5343L196.258 65.3644ZM188.042 90.7654C185.888 91.2561 183.637 91.5014 181.287 91.5014C177.665 91.5014 174.435 90.1767 171.596 87.5272C168.757 84.8778 167.338 81.0508 167.338 76.0462C167.338 70.9436 168.757 66.9203 171.596 63.9765C174.435 61.0326 177.665 59.5607 181.287 59.5607C183.832 59.5607 186.133 59.8551 188.188 60.4438C189.93 60.8596 191.954 61.6277 194.258 62.7481C194.673 62.9498 195.097 63.1631 195.53 63.3877L203.019 44.9887C198.908 41.7504 194.551 39.7388 189.951 38.9538C185.35 38.1687 181.581 37.7762 178.644 37.7762C167.093 37.7762 157.696 41.1617 150.452 47.9325C143.306 54.7033 139.733 64.0746 139.733 76.0462C139.733 88.0179 143.306 97.2419 150.452 103.718C157.696 110.097 167.093 113.286 178.644 113.286C181.581 113.286 185.35 112.893 189.951 112.108C194.551 111.323 198.908 109.312 203.019 106.073L195.53 87.6744C195.098 87.8983 194.674 88.112 194.258 88.3155C191.94 89.4496 189.868 90.2662 188.042 90.7654ZM214.272 113.086V38.8587H243.835V113.086H214.272ZM336.894 113.086H307.331V68.0978C307.331 65.6529 306.603 63.9725 305.313 62.8321C303.936 61.6137 302.226 60.9804 300.087 60.9804C298.648 60.9804 296.714 61.3675 294.238 62.2267C292.055 62.9843 290.024 63.7764 288.144 64.6022V113.086H258.581V39.0059H273.994L279.232 44.8103C282.2 43.1638 285.941 41.4125 290.441 39.5549C295.623 37.4162 301.291 36.3565 307.429 36.3565C317.758 36.3565 325.466 39.278 330.141 45.4507C334.675 51.3403 336.894 58.7278 336.894 67.5091V113.086ZM278.942 46.6078L273.363 40.4257H260.001V111.667H286.725V63.6821C288.878 62.7008 291.228 61.7686 293.773 60.8854C296.318 60.0023 298.423 59.5607 300.087 59.5607C302.534 59.5607 304.59 60.2967 306.254 61.7686C307.918 63.2405 308.75 65.3503 308.75 68.0978V111.667H335.474V67.5091C335.474 58.9719 333.321 51.9067 329.013 46.3134C324.706 40.6219 317.511 37.7762 307.429 37.7762C301.457 37.7762 295.975 38.8066 290.983 40.8673C285.991 42.928 281.977 44.8415 278.942 46.6078ZM350.21 113.086V8.03178L379.773 6.24065V40.3731C382.279 39.4106 385.021 38.5774 387.994 37.8708C391.812 36.8651 395.501 36.3565 399.058 36.3565C409.388 36.3565 417.097 39.2786 421.771 45.4524C426.305 51.3418 428.523 58.7287 428.523 67.5091V113.086H398.96V68.0978C398.96 65.6529 398.232 63.9725 396.943 62.8321C395.565 61.6137 393.855 60.9804 391.716 60.9804C390.278 60.9804 388.344 61.3675 385.867 62.2267C383.684 62.9843 381.653 63.7764 379.773 64.6022V113.086H350.21ZM378.354 63.6821C380.507 62.7008 382.857 61.7686 385.402 60.8854C387.947 60.0023 390.052 59.5607 391.716 59.5607C394.163 59.5607 396.219 60.2967 397.883 61.7686C399.547 63.2405 400.379 65.3503 400.379 68.0978V111.667H427.103V67.5091C427.103 58.9719 424.95 51.9067 420.643 46.3134C416.335 40.6219 409.141 37.7762 399.058 37.7762C395.632 37.7762 392.059 38.2669 388.339 39.2482C385.206 39.9919 382.351 40.8749 379.773 41.8971C379.29 42.0886 378.817 42.2851 378.354 42.4864V7.74902L351.63 9.36813V111.667H378.354V63.6821ZM508.605 104.975L508.601 104.979C500.388 111.483 490.375 114.706 478.646 114.706C466.925 114.706 457.094 111.536 449.26 105.111C441.298 98.5806 437.434 88.6456 437.434 75.6046C437.434 63.2936 441.479 53.5905 449.687 46.699C457.892 39.7937 467.767 36.3565 479.234 36.3565C491.254 36.3565 501.243 39.6766 509.083 46.4117C517.117 53.2286 521.033 63.2923 521.033 76.3406C521.033 88.6575 516.935 98.2751 508.61 104.972L508.605 104.975ZM487.602 65.2127L487.596 65.2043C485.716 62.3768 483.084 60.9804 479.527 60.9804C475.674 60.9804 472.887 62.2617 470.949 64.7102C468.96 67.2251 467.879 70.8002 467.879 75.6046C467.879 80.2017 468.906 83.753 470.829 86.3856C472.677 88.8227 475.312 90.0816 478.94 90.0816C482.846 90.0816 485.647 88.9105 487.567 86.7349C489.502 84.5417 490.589 81.1584 490.589 76.3406C490.589 71.7436 489.561 68.0694 487.607 65.2211L487.602 65.2127ZM469.689 87.2328C467.536 84.289 466.459 80.4129 466.459 75.6046C466.459 70.6001 467.585 66.675 469.836 63.8293C472.088 60.9836 475.318 59.5607 479.527 59.5607C483.541 59.5607 486.624 61.1798 488.778 64.418C490.932 67.5581 492.008 71.5323 492.008 76.3406C492.008 81.3451 490.883 85.1231 488.631 87.6744C486.38 90.2257 483.149 91.5014 478.94 91.5014C474.926 91.5014 471.843 90.0786 469.689 87.2328ZM113.044 31.9836C108.74 31.9836 105.005 30.4028 101.907 27.298C98.8101 24.1933 97.2344 20.4501 97.2344 16.139C97.2344 11.7442 98.7998 7.95198 101.899 4.84148C104.99 1.63954 108.728 0 113.044 0C117.443 0 121.23 1.62873 124.328 4.83271C127.524 7.93777 129.147 11.7323 129.147 16.139C129.147 20.4621 127.513 24.2073 124.319 27.3063C121.216 30.413 117.431 31.9836 113.044 31.9836ZM123.322 26.2952C120.484 29.141 117.057 30.5638 113.044 30.5638C109.128 30.5638 105.751 29.141 102.912 26.2952C100.073 23.4495 98.654 20.0641 98.654 16.139C98.654 12.1157 100.073 8.68123 102.912 5.83552C105.751 2.89167 109.128 1.41975 113.044 1.41975C117.057 1.41975 120.484 2.89167 123.322 5.83552C126.259 8.68123 127.728 12.1157 127.728 16.139C127.728 20.0641 126.259 23.4495 123.322 26.2952ZM228.907 31.9836C224.603 31.9836 220.867 30.4028 217.77 27.298C214.673 24.1933 213.097 20.4501 213.097 16.139C213.097 11.7439 214.663 7.95142 217.762 4.84079C220.854 1.63931 224.591 0 228.907 0C233.306 0 237.093 1.62861 240.19 4.83237C243.387 7.9375 245.01 11.7321 245.01 16.139C245.01 20.4622 243.376 24.2076 240.182 27.3066C237.079 30.4132 233.294 31.9836 228.907 31.9836ZM239.185 26.2952C236.347 29.141 232.92 30.5638 228.907 30.5638C224.991 30.5638 221.614 29.141 218.775 26.2952C215.936 23.4495 214.517 20.0641 214.517 16.139C214.517 12.1157 215.936 8.68123 218.775 5.83552C221.614 2.89167 224.991 1.41975 228.907 1.41975C232.92 1.41975 236.347 2.89167 239.185 5.83552C242.122 8.68123 243.59 12.1157 243.59 16.139C243.59 20.0641 242.122 23.4495 239.185 26.2952ZM99.8287 40.2785H126.553V111.667H99.8287V40.2785ZM215.692 40.2785H242.416V111.667H215.692V40.2785ZM450.601 47.7853C442.769 54.3599 438.854 63.633 438.854 75.6046C438.854 88.3613 442.623 97.8307 450.16 104.013C457.698 110.195 467.193 113.286 478.646 113.286C490.1 113.286 499.791 110.146 507.72 103.866C515.649 97.4872 519.614 88.3122 519.614 76.3406C519.614 63.5839 515.796 53.9674 508.16 47.4909C500.623 41.0145 490.981 37.7762 479.234 37.7762C468.074 37.7762 458.53 41.1126 450.601 47.7853Z" fill="#015EC5"/>
<path d="M6.17904 50.0633C6.47151 48.3343 7.76321 47.6619 8.37251 47.5419C10.8097 48.0221 15.7571 48.9827 16.0496 48.9827C16.342 48.9827 17.6337 49.7031 18.243 50.0633L20.8021 56.9071C20.6802 59.5486 20.4365 64.9756 20.4365 65.552C20.4365 66.1283 22.8737 72.0356 24.0923 74.9172L20.0709 88.6049L15.684 95.8089L14.2217 96.5293C13.8561 96.4092 13.6368 96.0971 12.7594 95.8089C11.882 95.5207 11.7845 94.5247 12.0282 94.0444L17.1463 83.2018L12.0282 92.2069H9.83477L8.37251 91.4865L7.64131 90.0457L12.7594 79.96L7.27577 88.6049H5.44785H4.35112L3.62002 87.1641V85.0028L6.72165 80.3013L4.35112 81.761L2.52323 80.6804L1.79208 79.1352L3.62002 76.358L5.44785 72.756V70.9706L3.62002 69.5142C2.88883 69.0339 1.93824 67.709 1.06102 67.4208C-0.0355003 67.0606 0.695507 65.552 1.06108 64.8316C1.35355 64.2552 3.86377 63.871 5.08232 63.7509C4.10742 63.3907 2.01137 62.5263 1.42645 61.9499C0.695298 61.2295 1.4265 58.3479 1.79208 57.9877C2.08454 57.6996 6.91012 59.6687 8.00689 59.4285C7.27573 58.8282 3.03509 55.3943 3.62002 53.6653C4.20494 51.9363 6.30091 52.4646 7.27577 52.9449C6.78834 52.7048 5.88658 51.7923 6.17904 50.0633Z" fill="white"/>
<path d="M37.3978 70.7909C37.1003 69.2536 35.5381 68.3568 34.7942 68.1006L34.0503 71.9439L34.7942 75.7871L36.6539 77.7088L39.6295 78.8618L41.1173 78.4774L40.3734 76.5558L38.8856 74.2498C38.5137 73.7374 37.6954 72.3282 37.3978 70.7909Z" fill="white"/>
<path fill-rule="evenodd" clip-rule="evenodd" d="M36.6225 68.4688L35.5821 68.698C33.7715 69.0968 32.2807 68.7406 31.2777 67.8896C30.3884 67.1349 29.8935 65.9567 30.1515 64.8621C30.152 64.4364 30.0573 64.1799 29.9639 64.0239C29.8598 63.8499 29.7055 63.7145 29.4943 63.6101C29.0198 63.3756 28.4155 63.3778 28.1832 63.4289L27.7994 63.5135L27.4381 63.3579C24.8756 62.2543 23.4816 60.8174 23.0722 59.1987C22.6681 57.6005 23.3241 56.2159 24.0068 55.4376L24.4652 54.915L25.1456 55.0383C28.6384 55.6716 31.0801 56.3934 32.7282 57.0576C33.5517 57.3894 34.1934 57.7134 34.6757 58.0152C35.1225 58.2947 35.5424 58.622 35.7964 59.0008L35.9818 59.2774L36.6225 68.4688ZM31.3783 65.0458C31.0091 66.1705 32.277 68.1535 35.3198 67.4833L34.7771 59.6979C34.3573 59.0717 31.7998 57.5079 24.9281 56.2621C23.9385 57.3903 23.1515 60.1603 27.9209 62.2142C28.8265 62.0147 31.5015 62.2142 31.3783 65.0458ZM8.19816 66.5939L8.78224 66.9726C10.1297 67.8463 11.9233 67.4512 12.7883 66.0901C13.6533 64.7291 13.2621 62.9176 11.9146 62.0439L5.24746 57.7212C3.89995 56.8475 2.10637 57.2426 1.24138 58.6036C0.376393 59.9647 0.767552 61.7762 2.11506 62.6499L3.23689 63.3772C2.17145 63.252 1.07826 63.7314 0.459785 64.7045C-0.405203 66.0655 -0.0140446 67.8771 1.33346 68.7508L4.15364 70.5792C5.50115 71.4529 7.29473 71.0578 8.15972 69.6968C8.77819 68.7237 8.75448 67.5202 8.19816 66.5939ZM13.6457 56.0867L15.7629 57.4593C17.1104 58.333 17.5016 60.1446 16.6366 61.5056C15.7716 62.8666 13.978 63.2617 12.6305 62.388L4.39142 57.0462C3.04392 56.1725 2.65275 54.361 3.51774 52.9999C4.11633 52.0581 5.15963 51.5788 6.19205 51.6625C5.43283 50.708 5.32229 49.3334 6.01321 48.2462C6.8782 46.8852 8.67179 46.4901 10.0193 47.3638L15.156 50.6942C16.5035 51.5679 16.8946 53.3794 16.0296 54.7404C15.4872 55.594 14.5795 56.0676 13.6457 56.0867ZM1.99841 67.7045C1.223 67.2017 0.997915 66.1593 1.49566 65.3761C1.99341 64.5929 3.0255 64.3656 3.80092 64.8683L6.62109 66.6968C7.3965 67.1995 7.62159 68.242 7.12384 69.0252C6.62609 69.8084 5.594 70.0357 4.81859 69.533L1.99841 67.7045ZM2.27726 59.2753C1.77951 60.0584 2.0046 61.1009 2.78001 61.6036L9.44719 65.9263C10.2226 66.4291 11.2547 66.2017 11.7524 65.4185C12.2502 64.6353 12.0251 63.5929 11.2497 63.0902L4.58251 58.7675C3.8071 58.2647 2.77501 58.4921 2.27726 59.2753ZM5.05637 55.9999C4.28096 55.4972 4.05587 54.4547 4.55362 53.6715C5.05137 52.8884 6.08346 52.661 6.85887 53.1638L15.0979 58.5056C15.8734 59.0083 16.0984 60.0508 15.6007 60.834C15.1029 61.6172 14.0708 61.8445 13.2954 61.3418L5.05637 55.9999ZM7.04909 48.9179C6.55134 49.701 6.77643 50.7435 7.55184 51.2462L12.6885 54.5766C13.4639 55.0794 14.496 54.852 14.9938 54.0688C15.4915 53.2856 15.2664 52.2432 14.491 51.7405L9.35434 48.4101C8.57894 47.9073 7.54684 48.1347 7.04909 48.9179Z" fill="#015EC5"/>
<path d="M13.4414 95.8711C14.2132 96.3735 15.2405 96.1447 15.7358 95.3601L21.9388 85.5352L21.9714 85.5576C22.3628 85.0093 22.7903 84.37 23.2506 83.6816C26.3782 79.0041 31.0235 72.057 36.1978 75.924C36.7741 76.851 38.4768 78.4965 40.6779 77.6624C39.4901 75.8641 37.1311 71.9475 37.1968 70.6668C37.2357 69.9078 35.727 69.6543 34.0825 69.378C32.9776 68.965 31.635 68.1827 31.1579 67.5341L34.3326 68.4841C34.7029 68.5463 35.0459 68.4398 35.3766 68.3371C35.7342 68.2261 36.0774 68.1195 36.4252 68.2355C36.7436 68.3417 37.3207 68.8245 37.67 69.1168L37.7114 69.1514L37.7417 69.1766C38.1136 69.4868 38.4614 69.995 38.4261 70.6824L38.4265 70.6773L38.4269 70.6812C38.4285 70.6973 38.435 70.7643 38.4695 70.8972C38.5124 71.0623 38.5839 71.2746 38.6871 71.5322C38.8935 72.0474 39.1957 72.6681 39.5502 73.3305C40.2574 74.6519 41.1228 76.0469 41.7019 76.9236L42.5629 78.2272L41.1103 78.7776C39.6156 79.3441 38.2668 79.0588 37.2421 78.4979C36.3673 78.0191 35.7055 77.3322 35.3005 76.7553C34.3098 76.0656 33.4255 75.9068 32.6114 76.0281C31.7057 76.1631 30.7473 76.667 29.7416 77.5077C27.7056 79.2094 25.8614 81.9498 24.2708 84.3286L24.2634 84.3396C23.8086 85.0198 23.3724 85.6721 22.97 86.2359L22.5856 86.7746L16.7737 95.9797C15.9138 97.3419 14.1233 97.7452 12.7747 96.8674C11.4563 96.0092 11.061 94.252 11.8544 92.9035C10.9419 93.4594 9.75921 93.4831 8.80007 92.8588C7.45542 91.9835 7.07105 90.1732 7.92856 88.8149L8.0466 88.628C7.10315 89.4842 5.67627 89.6401 4.55503 88.9102C3.21038 88.035 2.82596 86.2246 3.68352 84.8664L5.42516 82.1078C4.64399 82.3471 3.76797 82.252 3.02574 81.7689C1.68115 80.8937 1.29673 79.0833 2.15423 77.7251L5.15054 72.3884C5.51016 71.5013 5.25338 70.6109 5.15054 69.6992C5.55565 69.8482 5.99585 69.8292 6.37967 69.6628C6.4967 70.7297 7.92856 68.8909 6.67411 72.3884L3.19205 78.4424C2.69667 79.227 2.92074 80.2703 3.69254 80.7727C4.46427 81.275 5.49151 81.0462 5.98689 80.2616L7.56048 77.7692C7.56487 77.7618 7.56938 77.7544 7.574 77.747L9.85279 74.1327C10.1145 73.7174 10.66 73.5952 11.0711 73.8596C11.4822 74.124 11.6031 74.6749 11.3414 75.0901L11.0374 75.5722C11.0256 75.5956 11.0132 75.618 11.0001 75.6388L4.72128 85.5837C4.2259 86.3683 4.44997 87.4116 5.22177 87.914C5.9935 88.4163 7.02074 88.1875 7.51612 87.4029L12.2629 79.8838L13.4661 77.954C13.4988 77.9016 13.5348 77.8528 13.5737 77.8074L13.6651 77.6625L13.7035 77.678C14.0857 77.3521 14.6474 77.2971 15.0932 77.5807C15.6446 77.9314 15.8101 78.6672 15.4629 79.224L15.2791 79.5188C15.2697 79.5425 15.2589 79.5656 15.2451 79.5874L14.5349 80.7123L13.519 82.3416C13.4889 82.39 13.4557 82.4355 13.4202 82.4779L8.96638 89.5322C8.471 90.3168 8.69507 91.3602 9.4668 91.8625C10.2386 92.3649 11.2658 92.1361 11.7612 91.3514L15.7547 85.0263C15.78 84.9612 15.8118 84.8976 15.8504 84.8364L17.907 81.5744C18.2302 81.0619 18.9035 80.9109 19.4109 81.2373C19.9183 81.5637 20.0677 82.2437 19.7446 82.7562L19.1856 83.6428L19.1888 83.6449L12.941 93.5408C12.4456 94.3255 12.6697 95.3688 13.4414 95.8711Z" fill="#015EC5"/>
<path d="M5.53202 65.9907L4.15245 65.0963L4.05545 64.4804L4.9614 63.018L6.01887 63.7036L5.34348 64.7938L5.53202 65.9907Z" fill="#015EC5"/>
<path d="M7.789 60.8464L6.73152 60.1608L8.09054 57.9671L9.14801 58.6528L7.789 60.8464Z" fill="#015EC5"/>
<path d="M10.9181 55.7956L8.98651 54.5432L7.21993 51.5566L7.38678 51.1244C7.41034 51.1441 7.43456 51.1633 7.45944 51.1819C7.48932 51.2041 7.5201 51.2257 7.55184 51.2462L8.99456 52.1817L11.0276 55.6188L10.9181 55.7956Z" fill="#015EC5"/>
<path d="M9.35434 48.4101C8.99137 48.1747 8.57203 48.0994 8.17769 48.1661C8.17685 47.9026 8.1263 47.742 8.05772 47.6492C8.27746 47.5908 8.61044 47.4645 9.09848 47.2241L10.4246 47.5589C10.3115 47.5969 10.2155 47.6255 10.1337 47.6483C10.0671 47.6668 10.01 47.6813 9.96086 47.6939L9.95214 47.6961L9.9498 47.6966L9.94872 47.6968C9.87413 47.7158 9.81829 47.73 9.77562 47.7462C9.76546 47.7501 9.75608 47.7541 9.74731 47.7582L9.73787 47.763C9.71882 47.7731 9.70319 47.7843 9.69003 47.7981C9.63978 47.8505 9.62542 47.9381 9.59513 48.1231C9.57872 48.2234 9.55762 48.3523 9.52354 48.5198L9.35434 48.4101Z" fill="#015EC5"/>
<path d="M7.70184 47.5968C7.64366 47.6612 7.70413 47.7431 8.05772 47.6492C7.93679 47.4854 7.75997 47.5324 7.70184 47.5968Z" fill="#015EC5"/>
</svg>
